<?xml version="1.0" encoding="UTF-8"?>
<svg width="100" height="100" viewBox="0 0 100 100" fill="none" xmlns="http://www.w3.org/2000/svg">
  <rect width="100" height="100" rx="10" fill="#23282D"/>
  <path d="M50 20C33.4315 20 20 33.4315 20 50C20 66.5685 33.4315 80 50 80C66.5685 80 80 66.5685 80 50C80 33.4315 66.5685 20 50 20ZM60.7143 65.7143H39.2857C37.4286 65.7143 35.7143 64 35.7143 62.1429V37.8571C35.7143 36 37.4286 34.2857 39.2857 34.2857H60.7143C62.5714 34.2857 64.2857 36 64.2857 37.8571V62.1429C64.2857 64 62.5714 65.7143 60.7143 65.7143Z" fill="#2271B1"/>
  <path d="M57.1429 41.4286H42.8571C41.9286 41.4286 41.4286 41.9286 41.4286 42.8571V57.1429C41.4286 58.0714 41.9286 58.5714 42.8571 58.5714H57.1429C58.0714 58.5714 58.5714 58.0714 58.5714 57.1429V42.8571C58.5714 41.9286 58.0714 41.4286 57.1429 41.4286Z" fill="white"/>
</svg>
